HIERARCHY
ROOT Hips
{
    OFFSET   0.000000   0.000000   0.000000
    CHANNELS 6 Xposition Yposition Zposition Zrotation Xrotation Yrotation
    JOINT Chest
    {
        OFFSET   0.000000   8.007240   0.000000
        CHANNELS 3 Zrotation Xrotation Yrotation
        JOINT Chest2
        {
            OFFSET   0.000000  22.077100   0.000000
            CHANNELS 3 Zrotation Xrotation Yrotation
            JOINT Neck
            {
                OFFSET   0.000000  23.254800   0.000000
                CHANNELS 3 Zrotation Xrotation Yrotation
                JOINT Head
                {
                    OFFSET   0.000000  14.370000   1.956600
                    CHANNELS 3 Zrotation Xrotation Yrotation
                    End Site
                    {
                        OFFSET   0.000000  19.566000   0.000000
                    }
                }
            }
            JOINT LeftCollar
            {
                OFFSET   3.911900  19.017000  -0.467064
                CHANNELS 3 Zrotation Xrotation Yrotation
                JOINT LeftShoulder
                {
                    OFFSET  10.383700   0.000000   0.000000
                    CHANNELS 3 Zrotation Xrotation Yrotation
                    JOINT LeftElbow
                    {
                        OFFSET  26.662100   0.001476   0.000517
                        CHANNELS 3 Zrotation Xrotation Yrotation
                        JOINT LeftWrist
                        {
                            OFFSET  28.869000  -0.000025  -0.000106
                            CHANNELS 3 Zrotation Xrotation Yrotation
                            JOINT LeftFinger0
                            {
                                OFFSET   2.044660  -2.323460   3.252850
                                CHANNELS 3 Zrotation Xrotation Yrotation
                                JOINT LeftFinger01
                                {
                                    OFFSET   3.088130   0.000000   0.000000
                                    CHANNELS 3 Zrotation Xrotation Yrotation
                                    JOINT LeftFinger02
                                    {
                                        OFFSET   2.639460   0.000000   0.000000
                                        CHANNELS 3 Zrotation Xrotation Yrotation
                                        End Site
                                        {
                                            OFFSET   2.582190   0.000000   0.000000
                                        }
                                    }
                                }
                            }
                            JOINT LeftFinger1
                            {
                                OFFSET   8.364480   0.000000   3.252850
                                CHANNELS 3 Zrotation Xrotation Yrotation
                                JOINT LeftFinger11
                                {
                                    OFFSET   4.646930   0.000000   0.000000
                                    CHANNELS 3 Zrotation Xrotation Yrotation
                                    JOINT LeftFinger12
                                    {
                                        OFFSET   2.323460   0.000000   0.000000
                                        CHANNELS 3 Zrotation Xrotation Yrotation
                                        End Site
                                        {
                                            OFFSET   2.273050   0.000000   0.000000
                                        }
                                    }
                                }
                            }
                            JOINT LeftFinger2
                            {
                                OFFSET   8.364490   0.000015   1.078090
                                CHANNELS 3 Zrotation Xrotation Yrotation
                                JOINT LeftFinger21
                                {
                                    OFFSET   5.111620   0.000000   0.000000
                                    CHANNELS 3 Zrotation Xrotation Yrotation
                                    JOINT LeftFinger22
                                    {
                                        OFFSET   2.788160   0.000016   0.000000
                                        CHANNELS 3 Zrotation Xrotation Yrotation
                                        End Site
                                        {
                                            OFFSET   2.727660   0.000000   0.000000
                                        }
                                    }
                                }
                            }
                            JOINT LeftFinger3
                            {
                                OFFSET   7.899780   0.000017  -1.078090
                                CHANNELS 3 Zrotation Xrotation Yrotation
                                JOINT LeftFinger31
                                {
                                    OFFSET   4.646930   0.000000   0.000000
                                    CHANNELS 3 Zrotation Xrotation Yrotation
                                    JOINT LeftFinger32
                                    {
                                        OFFSET   2.323470   0.000000   0.000000
                                        CHANNELS 3 Zrotation Xrotation Yrotation
                                        End Site
                                        {
                                            OFFSET   2.273050   0.000000   0.000000
                                        }
                                    }
                                }
                            }
                            JOINT LeftFinger4
                            {
                                OFFSET   7.435090   0.000000  -3.252850
                                CHANNELS 3 Zrotation Xrotation Yrotation
                                JOINT LeftFinger41
                                {
                                    OFFSET   3.717550   0.000000   0.000000
                                    CHANNELS 3 Zrotation Xrotation Yrotation
                                    JOINT LeftFinger42
                                    {
                                        OFFSET   1.858770   0.000000   0.000000
                                        CHANNELS 3 Zrotation Xrotation Yrotation
                                        End Site
                                        {
                                            OFFSET   1.818440   0.000000   0.000000
                                        }
                                    }
                                }
                            }
                        }
                    }
                }
            }
            JOINT RightCollar
            {
                OFFSET  -3.911900  19.017000  -0.467063
                CHANNELS 3 Zrotation Xrotation Yrotation
                JOINT RightShoulder
                {
                    OFFSET -10.383700   0.000019   0.000000
                    CHANNELS 3 Zrotation Xrotation Yrotation
                    JOINT RightElbow
                    {
                        OFFSET -26.662100   0.001175   0.000102
                        CHANNELS 3 Zrotation Xrotation Yrotation
                        JOINT RightWrist
                        {
                            OFFSET -28.869000   0.000016  -0.000079
                            CHANNELS 3 Zrotation Xrotation Yrotation
                            JOINT RightFinger0
                            {
                                OFFSET  -2.044660  -2.323490   3.252850
                                CHANNELS 3 Zrotation Xrotation Yrotation
                                JOINT RightFinger01
                                {
                                    OFFSET  -3.088140   0.000000   0.000000
                                    CHANNELS 3 Zrotation Xrotation Yrotation
                                    JOINT RightFinger02
                                    {
                                        OFFSET  -2.639460   0.000000   0.000000
                                        CHANNELS 3 Zrotation Xrotation Yrotation
                                        End Site
                                        {
                                            OFFSET  -2.582190   0.000000   0.000000
                                        }
                                    }
                                }
                            }
                            JOINT RightFinger1
                            {
                                OFFSET  -8.364480   0.000000   3.252850
                                CHANNELS 3 Zrotation Xrotation Yrotation
                                JOINT RightFinger11
                                {
                                    OFFSET  -4.646930   0.000000   0.000000
                                    CHANNELS 3 Zrotation Xrotation Yrotation
                                    JOINT RightFinger12
                                    {
                                        OFFSET  -2.323470   0.000000   0.000000
                                        CHANNELS 3 Zrotation Xrotation Yrotation
                                        End Site
                                        {
                                            OFFSET  -2.273050   0.000000   0.000000
                                        }
                                    }
                                }
                            }
                            JOINT RightFinger2
                            {
                                OFFSET  -8.364480   0.000000   1.078090
                                CHANNELS 3 Zrotation Xrotation Yrotation
                                JOINT RightFinger21
                                {
                                    OFFSET  -5.111620   0.000000   0.000000
                                    CHANNELS 3 Zrotation Xrotation Yrotation
                                    JOINT RightFinger22
                                    {
                                        OFFSET  -2.788160   0.000000   0.000000
                                        CHANNELS 3 Zrotation Xrotation Yrotation
                                        End Site
                                        {
                                            OFFSET  -2.727660   0.000000   0.000000
                                        }
                                    }
                                }
                            }
                            JOINT RightFinger3
                            {
                                OFFSET  -7.899780   0.000000  -1.078090
                                CHANNELS 3 Zrotation Xrotation Yrotation
                                JOINT RightFinger31
                                {
                                    OFFSET  -4.646930   0.000000   0.000000
                                    CHANNELS 3 Zrotation Xrotation Yrotation
                                    JOINT RightFinger32
                                    {
                                        OFFSET  -2.323470   0.000000   0.000000
                                        CHANNELS 3 Zrotation Xrotation Yrotation
                                        End Site
                                        {
                                            OFFSET  -2.273050   0.000000   0.000000
                                        }
                                    }
                                }
                            }
                            JOINT RightFinger4
                            {
                                OFFSET  -7.435090   0.000000  -3.252850
                                CHANNELS 3 Zrotation Xrotation Yrotation
                                JOINT RightFinger41
                                {
                                    OFFSET  -3.717550   0.000000   0.000000
                                    CHANNELS 3 Zrotation Xrotation Yrotation
                                    JOINT RightFinger42
                                    {
                                        OFFSET  -1.858770   0.000000   0.000000
                                        CHANNELS 3 Zrotation Xrotation Yrotation
                                        End Site
                                        {
                                            OFFSET  -1.818440   0.000000   0.000000
                                        }
                                    }
                                }
                            }
                        }
                    }
                }
            }
        }
    }
    JOINT LeftHip
    {
        OFFSET   9.783040   0.000000   0.000000
        CHANNELS 3 Zrotation Xrotation Yrotation
        JOINT LeftKnee
        {
            OFFSET   0.000032 -41.789100  -0.002222
            CHANNELS 3 Zrotation Xrotation Yrotation
            JOINT LeftAnkle
            {
                OFFSET   0.000087 -41.133200  -0.000135
                CHANNELS 3 Zrotation Xrotation Yrotation
                JOINT LeftToe
                {
                    OFFSET   0.000000  -6.358960  14.674500
                    CHANNELS 3 Zrotation Xrotation Yrotation
                    End Site
                    {
                        OFFSET   0.000000   0.000000   3.913200
                    }
                }
            }
        }
    }
    JOINT RightHip
    {
        OFFSET  -9.783040   0.000000   0.000000
        CHANNELS 3 Zrotation Xrotation Yrotation
        JOINT RightKnee
        {
            OFFSET   0.000047 -41.789100  -0.000896
            CHANNELS 3 Zrotation Xrotation Yrotation
            JOINT RightAnkle
            {
                OFFSET  -0.000117 -41.133300  -0.000248
                CHANNELS 3 Zrotation Xrotation Yrotation
                JOINT RightToe
                {
                    OFFSET   0.000000  -6.358970  14.674500
                    CHANNELS 3 Zrotation Xrotation Yrotation
                    End Site
                    {
                        OFFSET   0.000000   0.000000   3.913200
                    }
                }
            }
        }
    }
}
MOTION
Frames: 6
Frame Time:   0.016667
 -0.255589  89.508500   2.226900  -1.015380  -3.073060   1.778280  -1.242290   2.466390   1.403210  -2.548170   4.900970   2.863650   2.916700  -1.271520   0.064585   4.800120  -2.558340  -4.751460  -2.936120   2.338100  -6.796230 -68.269100  14.053100  -5.853390  -1.609850  -4.773760  -6.475890   2.904570  -8.114870   1.560310  42.188200  29.920200 -65.344000 -22.354700  -0.001065  -0.000386  -6.177660  -0.001591  -0.004509 -29.588600   3.070520  -5.389060 -24.327000   0.000532  -0.000314 -17.028900   0.000091   0.005146 -27.299200  -0.103303   0.200234 -28.259800   0.000631  -0.001680 -18.821000   0.000739   0.007399 -27.028600  -2.003950   3.921310 -27.394400   0.001650  -0.000943 -18.244600   0.000617   0.000306 -28.767800  -3.061440   5.556080 -43.374500  -0.004906   0.000533 -28.887500  -0.002530  -0.002932  -2.569920 -16.703400  -1.222970   8.103460 -37.661100  77.343000 -19.074500   5.276410  10.030200  13.349000  21.139500  -4.392780 -40.098800  34.776300  73.049000  27.991900   0.000908  -0.002557   8.995910  -0.001603   0.001575  23.395500   4.675900  10.852700  19.469700   0.022627  -0.000546  13.628800   0.015048  -0.003544  19.657800   2.900630   7.847270  19.798500   0.020781   0.008067  13.185800   0.014677   0.002444  24.672000   0.667316   1.400180  24.679300   0.008680   0.002455  16.436400   0.007179  -0.002364  27.510800   0.729286   1.346690  41.277800   0.008087  -0.006720  27.491000   0.003051  -0.006666   2.088000   6.461630   2.251530   0.863658   0.105224   7.305520  -3.960690  -3.592920   2.110520   0.000000   0.000000   0.000000   1.077260   2.729790  -4.239480   1.539100   3.359360  -8.354300  -4.042950  -3.370820  -4.545540  -0.000000   0.000000  -0.000000
 -0.261172  89.508600   2.226870  -1.012490  -3.091390   1.759300  -1.244510   2.457990   1.410230  -2.552760   4.884000   2.877540   2.911930  -1.224610   0.062252   4.789890  -2.463850  -4.807430  -2.903780   2.408870  -6.815820 -68.268900  13.940500  -5.870730  -1.608880  -4.757270  -6.496910   2.905680  -8.127160   1.540570  42.200400  29.971000 -65.428100 -22.354500  -0.001030  -0.000401  -6.177590  -0.001591  -0.004463 -29.611100   3.081440  -5.403190 -24.346200   0.000481  -0.000328 -17.042300   0.000098   0.005173 -27.304400  -0.097105   0.188105 -28.288800   0.000594  -0.001618 -18.840400   0.000719   0.007417 -27.036700  -1.998990   3.910160 -27.427500   0.001630  -0.000967 -18.266700   0.000663   0.000290 -28.790400  -3.059030   5.546520 -43.407800  -0.004829   0.000534 -28.909600  -0.002465  -0.002940  -2.529350 -16.580100  -1.292260   8.186380 -37.655700  77.400100 -19.195400   4.650750  10.186000  14.219100  21.257900  -4.157730 -42.190700  36.414700  73.385100  27.332700  -0.001703  -0.002513   8.666330  -0.000914   0.001909  20.821700   4.766450  12.182600  17.455500   0.014519   0.018204  12.218900   0.012872   0.010499  17.210800   2.494290   7.971170  17.382700   0.014256   0.017651  11.576900   0.011828   0.009764  22.055000   0.359630   0.911304  22.068000  -0.000305   0.000146  14.697300   0.002116  -0.001731  24.709900   0.413462   0.900318  37.084800  -0.009857  -0.007660  24.698500  -0.007960  -0.002063   2.081640   6.504830   2.257600   0.862785   0.051791   7.306780  -3.954380  -3.563270   2.119380   0.000000   0.000000   0.000000   1.074570   2.733130  -4.234410   1.537070   3.371040  -8.358500  -4.044400  -3.371440  -4.526340  -0.000000   0.000000   0.000000
 -0.261202  89.508700   2.224780  -1.015470  -3.109680   1.713590  -1.244220   2.459120   1.429500  -2.553140   4.885870   2.916090   2.893690  -1.181410   0.060475   4.757750  -2.377380  -4.858880  -2.874650   2.442630  -6.860730 -68.273600  13.857600  -5.877050  -1.610740  -4.721810  -6.527970   2.889240  -8.108520   1.519960  42.206500  30.003900 -65.491100 -22.359100  -0.000985  -0.000371  -6.179750  -0.001597  -0.004414 -29.627200   3.091410  -5.415840 -24.360000   0.000437  -0.000340 -17.052000   0.000108   0.005197 -27.303700  -0.092789   0.179044 -28.312000   0.000559  -0.001557 -18.855800   0.000701   0.007432 -27.041800  -1.995740   3.901640 -27.461600   0.001611  -0.000991 -18.289400   0.000709   0.000278 -28.813700  -3.057610   5.537640 -43.442300  -0.004753   0.000532 -28.932500  -0.002400  -0.002948  -2.454810 -16.456200  -1.344010   8.221130 -37.552500  77.415000 -19.213800   4.758450  10.278300  12.882000  21.939200  -3.628030 -44.295700  38.231000  74.237300  27.176900   0.002636  -0.002941   8.588440  -0.000244   0.002228  20.776200   4.602130  11.880500  17.424300   0.017927   0.019562  12.197000   0.015241   0.010395  17.282000   2.350380   7.695010  17.437100   0.016493   0.018150  11.613200   0.013290   0.009703  20.697200   0.371402   1.009320  20.713900   0.004263   0.004490  13.795500   0.005626  -0.001031  22.770900   0.422219   0.994003  34.182100  -0.001727  -0.003275  22.765300  -0.001860   0.000413   2.077480   6.510690   2.260840   0.866529   0.089069   7.317290  -3.953120  -3.583080   2.146930  -0.000000   0.000000   0.000000   1.067680   2.747540  -4.231040   1.543010   3.371040  -8.352430  -4.043830  -3.370730  -4.490390   0.000000   0.000000  -0.000000
 -0.261207  89.508900   2.219790  -1.022010  -3.129710   1.648770  -1.242680   2.465780   1.459080  -2.551370   4.898490   2.975480   2.867900  -1.146740   0.059365   4.716820  -2.308160  -4.912130  -2.858120   2.451880  -6.926620 -68.275500  13.789900  -5.886390  -1.619760  -4.692290  -6.565110   2.862040  -8.077500   1.499470  42.208500  30.020900 -65.523900 -22.363800  -0.000938  -0.000321  -6.181910  -0.001602  -0.004366 -29.634500   3.096320  -5.423970 -24.366400   0.000394  -0.000352 -17.056500   0.000118   0.005220 -27.302400  -0.090141   0.173381 -28.323300   0.000525  -0.001497 -18.863300   0.000685   0.007446 -27.043900  -1.994770   3.898370 -27.480800   0.001593  -0.001017 -18.302200   0.000756   0.000268 -28.827800  -3.057230   5.533530 -43.463400  -0.004675   0.000527 -28.946600  -0.002334  -0.002956  -2.358370 -16.334700  -1.383360   8.200460 -37.355400  77.343000 -19.243200   5.185170  10.356000  10.251500  22.969800  -2.939990 -45.690300  39.590700  74.819700  27.154600   0.006975  -0.003370   8.577310   0.000349   0.002543  20.820000   4.437310  11.578600  17.419800   0.021336   0.019756  12.193900   0.017610   0.009668  17.572900   2.331060   7.419610  17.746000   0.018730   0.018222  11.818900   0.014753   0.009280  20.133300   0.453830   1.305410  20.152900   0.010459   0.010886  13.421900   0.009925  -0.000301  21.779200   0.483542   1.287210  32.698500   0.010872   0.004724  21.777200   0.007917   0.002188   2.075400   6.516570   2.261650   0.870622   0.126342   7.340010  -3.950710  -3.610110   2.187970  -0.000000   0.000000  -0.000000   1.059950   2.769390  -4.229910   1.554650   3.370820  -8.337860  -4.041950  -3.367340  -4.441340  -0.000000   0.000000  -0.000000
 -0.255818  89.509100   2.210450  -1.032760  -3.150310   1.566290  -1.239760   2.483750   1.500610  -2.547800   4.933550   3.058960   2.842050  -1.125750   0.059062   4.674240  -2.266220  -4.979060  -2.863030   2.448770  -7.027190 -68.251300  13.752900  -5.909830  -1.639320  -4.686350  -6.603490   2.829340  -8.046730   1.477650  42.212500  30.006600 -65.499200 -22.348200  -0.000893  -0.000281  -6.174070  -0.001601  -0.004329 -29.622300   3.096060  -5.426780 -24.356400   0.000353  -0.000366 -17.049500   0.000127   0.005241 -27.300600  -0.087969   0.169793 -28.310100   0.000492  -0.001439 -18.854500   0.000669   0.007459 -27.042700  -1.995090   3.899250 -27.475900   0.001576  -0.001042 -18.298900   0.000803   0.000262 -28.829500  -3.056770   5.533270 -43.466000  -0.004599   0.000522 -28.948400  -0.002268  -0.002962  -2.243750 -16.230600  -1.408900   8.002520 -37.087200  77.088100 -19.253200   6.133550  10.473700   7.064210  23.924200  -2.239210 -45.751300  39.944800  74.736100  27.327900   0.005445  -0.002681   8.663980   0.000840   0.002856  21.503100   4.715250  11.856500  18.008000   0.016016   0.014689  12.605600   0.013045   0.006204  18.233600   2.551100   7.856340  18.435400   0.013654   0.011555  12.278000   0.010519   0.004893  20.327600   0.658600   1.848490  20.348900   0.012398   0.014750  13.552400   0.010847   0.000416  21.804900   0.695861   1.847970  32.750400   0.020616   0.014801  21.811800   0.016524   0.003633   2.074800   6.553230   2.261090   0.872872   0.111900   7.373650  -3.945090  -3.615830   2.236270   0.000000   0.000000  -0.000000   1.051870   2.801290  -4.230290   1.568830   3.354610  -8.315450  -4.038990  -3.360090  -4.379480   0.000000   0.000000   0.000000
 -0.248457  89.509500   2.203350  -1.045990  -3.171870   1.476200  -1.236700   2.502200   1.540940  -2.543970   4.969590   3.140070   2.819100  -1.118080   0.058951   4.636500  -2.250900  -5.019480  -2.875070   2.445710  -7.116730 -68.215400  13.728700  -5.939550  -1.660940  -4.685180  -6.643290   2.808760  -8.028310   1.465240  42.222200  29.990500 -65.458100 -22.332500  -0.000845  -0.000246  -6.166240  -0.001596  -0.004292 -29.603900   3.094320  -5.427170 -24.341400   0.000312  -0.000381 -17.039000   0.000137   0.005260 -27.298800  -0.087054   0.168637 -28.288400   0.000460  -0.001382 -18.840100   0.000654   0.007470 -27.040700  -1.997330   3.905390 -27.465000   0.001560  -0.001068 -18.291700   0.000851   0.000259 -28.829800  -3.056620   5.533230 -43.466400  -0.004521   0.000515 -28.948600  -0.002202  -0.002969  -2.123890 -16.115300  -1.426050   7.789130 -36.767600  76.779200 -19.337400   7.193170  10.625000   3.391410  24.857100  -1.378010 -45.820900  39.995400  74.724200  27.640800   0.003283  -0.001690   8.820420   0.001081   0.003165  22.714900   5.295750  12.470400  19.065400   0.010697   0.007128  13.345800   0.008480   0.002964  19.176200   3.042430   8.747190  19.418300   0.008578   0.004774  12.932600   0.006285   0.000348  20.861200   0.931929   2.496120  20.891300   0.012711   0.016562  13.913600   0.010979   0.001075  22.045000   0.995094   2.496740  33.113700   0.025891   0.021262  22.053700   0.021455   0.004284   2.078230   6.599780   2.258030   0.874738   0.097458   7.413070  -3.939230  -3.620950   2.288650  -0.000000   0.000000   0.000000   1.047920   2.831910  -4.230850   1.578190   3.338710  -8.290260  -4.036530  -3.350560  -4.311870  -0.000000   0.000000  -0.000000
